Coordinates
version=1
nRows=13
nColumns=38
inDegrees=no

Units are S.I. units (second, meters, Newtons, ...)
If the header above contains a line with 'inDegrees', this indicates whether rotational values are in degrees (yes) or radians (no).

endheader
time	pelvis_tilt	pelvis_list	pelvis_rotation	pelvis_tx	pelvis_ty	pelvis_tz	hip_flexion_r	hip_adduction_r	hip_rotation_r	knee_angle_r	ankle_angle_r	subtalar_angle_r	mtp_angle_r	hip_flexion_l	hip_adduction_l	hip_rotation_l	knee_angle_l	ankle_angle_l	subtalar_angle_l	mtp_angle_l	lumbar_extension	lumbar_bending	lumbar_rotation	arm_flex_r	arm_add_r	arm_rot_r	elbow_flex_r	pro_sup_r	wrist_flex_r	wrist_dev_r	arm_flex_l	arm_add_l	arm_rot_l	elbow_flex_l	pro_sup_l	wrist_flex_l	wrist_dev_l
5	0.33869	1.47806	1.37316	0.680183	0.180942	1.05889	0.223802	-0.037096	-0.0305448	0.316271	-0.250245	0	0	0.181786	-0.133947	-0.15489	0.340625	-0.313294	0	0	-0.37888	0.0302635	-0.0445323	0.467969	-0.462209	0.987705	0.5978	0.9768	0	0	0.0584909	-0.344316	0.114441	0.729473	1.40533	0	0
5.01	0.336068	1.48268	1.37523	0.680145	0.181819	1.05931	0.217111	-0.0378311	-0.0275077	0.314891	-0.2488	0	0	0.173566	-0.132316	-0.155388	0.336444	-0.313247	0	0	-0.377613	0.0300058	-0.0443821	0.465336	-0.462765	0.981484	0.60012	0.974684	0	0	0.0579475	-0.342514	0.1135	0.729354	1.40522	0	0
5.02	0.333337	1.48674	1.37699	0.680106	0.182733	1.05967	0.211463	-0.0385782	-0.0248002	0.314352	-0.247569	0	0	0.166452	-0.131062	-0.157227	0.333621	-0.312951	0	0	-0.375943	0.0297229	-0.0441026	0.462666	-0.463094	0.975905	0.601986	0.973289	0	0	0.0569691	-0.340486	0.112297	0.729108	1.40501	0	0
5.03	0.337981	1.49155	1.37231	0.680078	0.18342	1.06009	0.205294	-0.038976	-0.0233353	0.31455	-0.247129	0	0	0.160028	-0.130643	-0.159079	0.333185	-0.312226	0	0	-0.374642	0.0307419	-0.047022	0.467438	-0.463526	0.991407	0.601792	0.956707	0	0	0.0543732	-0.338857	0.109515	0.728878	1.40393	0	0
5.04	0.342241	1.49568	1.36758	0.6801	0.184006	1.06052	0.199437	-0.0389009	-0.020129	0.313262	-0.246011	0	0	0.154987	-0.130671	-0.162808	0.333786	-0.31223	0	0	-0.373864	0.031022	-0.0469924	0.466363	-0.464052	0.989307	0.603035	0.958136	0	0	0.0542887	-0.337185	0.109614	0.728127	1.40396	0	0
5.05	0.345143	1.50017	1.36402	0.680124	0.184676	1.06097	0.194063	-0.039254	-0.0180906	0.314135	-0.24445	0	0	0.149551	-0.130378	-0.165755	0.33445	-0.312101	0	0	-0.373434	0.0309944	-0.0470177	0.465165	-0.464514	0.987611	0.604251	0.959126	0	0	0.0539536	-0.335654	0.110041	0.727346	1.40468	0	0
5.06	0.342331	1.50262	1.36837	0.679752	0.185513	1.0612	0.189797	-0.0404324	-0.0195076	0.313551	-0.243467	0	0	0.147087	-0.129266	-0.164521	0.335657	-0.311876	0	0	-0.3708	0.0315757	-0.0489916	0.462958	-0.465061	0.986078	0.605307	0.959933	0	0	0.0529111	-0.333927	0.110589	0.726456	1.40583	0	0
5.07	0.336665	1.50248	1.37942	0.678712	0.186635	1.06114	0.185722	-0.0425611	-0.0271356	0.309171	-0.242799	0	0	0.148496	-0.127502	-0.158706	0.337789	-0.311291	0	0	-0.364869	0.0336477	-0.0539721	0.458742	-0.465703	0.983633	0.605945	0.962177	0	0	0.0513346	-0.331465	0.111321	0.72425	1.40793	0	0
5.08	0.335335	1.50356	1.38397	0.678214	0.187472	1.06121	0.182111	-0.0438544	-0.0323565	0.307046	-0.242407	0	0	0.148685	-0.126715	-0.155211	0.340398	-0.3106	0	0	-0.36043	0.0349411	-0.0572384	0.455854	-0.46555	0.982221	0.605711	0.965562	0	0	0.0504131	-0.329753	0.112747	0.722056	1.41039	0	0
5.09	0.340308	1.50651	1.37979	0.678192	0.188039	1.06149	0.178933	-0.0441807	-0.0329293	0.309076	-0.241573	0	0	0.146645	-0.126831	-0.154829	0.343202	-0.309994	0	0	-0.358561	0.0354988	-0.0585058	0.454572	-0.465275	0.982251	0.605395	0.969325	0	0	0.0501131	-0.328841	0.115131	0.720654	1.41304	0	0
5.1	0.34649	1.50987	1.37341	0.678301	0.188468	1.06185	0.175016	-0.0441785	-0.0324048	0.309648	-0.240534	0	0	0.143882	-0.126936	-0.154766	0.345693	-0.309419	0	0	-0.357768	0.0357015	-0.0587681	0.454211	-0.465402	0.984585	0.605305	0.974773	0	0	0.0503713	-0.328211	0.118421	0.71961	1.41601	0	0
5.11	0.354571	1.51365	1.3656	0.678401	0.188897	1.06221	0.170217	-0.0445774	-0.0347922	0.309119	-0.239652	0	0	0.140728	-0.127051	-0.155034	0.348211	-0.308713	0	0	-0.357242	0.0359312	-0.0594344	0.45428	-0.465506	0.988999	0.60479	0.982667	0	0	0.0507318	-0.328153	0.122995	0.718535	1.41974	0	0
5.12	0.347957	1.51513	1.37277	0.678499	0.189434	1.06241	0.166874	-0.0453301	-0.0371334	0.305944	-0.240439	0	0	0.139762	-0.126582	-0.154716	0.349832	-0.308291	0	0	-0.355164	0.0338301	-0.0506016	0.430931	-0.464274	0.92725	0.606878	1.0598	0	0	0.0608037	-0.331433	0.150936	0.71385	1.41068	0	0
